<?xml version="1.0" encoding="UTF-8"?>
<svg version="1.1" xmlns="http://www.w3.org/2000/svg" width="512" height="512">
<path d="M0 0 C1.39303863 -0.0043607 2.78607487 -0.0095483 4.17910767 -0.01548767 C7.92318914 -0.02874514 11.66716886 -0.02947117 15.41126919 -0.02692437 C18.55675269 -0.02584528 21.70221639 -0.03076192 24.84769559 -0.03552979 C32.28031511 -0.04657984 39.71288408 -0.04708832 47.14550781 -0.04101562 C54.76686852 -0.03498361 62.38804425 -0.04727757 70.00937343 -0.06858569 C76.59414732 -0.08630647 83.17886291 -0.09218656 89.76365972 -0.08894795 C93.67813106 -0.08715106 97.59247052 -0.08960888 101.50691986 -0.10366249 C120.49683671 -0.1660638 138.63351544 0.04527732 156.82519531 6.2746582 C158.11067261 6.7082666 158.11067261 6.7082666 159.42211914 7.15063477 C185.26028032 16.30228571 185.26028032 16.30228571 190.57519531 24.2746582 C188.67060547 24.51249023 188.67060547 24.51249023 186.72753906 24.75512695 C164.37367668 27.71003564 144.3868278 34.789501 127.57519531 50.2746582 C126.95773437 50.81219727 126.34027344 51.34973633 125.70410156 51.90356445 C109.5015741 66.83383803 98.76697877 90.45980061 97.45043945 112.34887695 C96.50602703 138.89834034 103.75315239 164.33652797 121.75878906 184.32543945 C125.10132235 187.89721472 128.67249768 191.18684031 132.38378906 194.37231445 C134.55043515 196.25316409 136.5570201 198.23691217 138.57519531 200.2746582 C110.09802462 200.34479803 81.6208669 200.39767079 53.14362717 200.43009472 C39.92059183 200.44555112 26.69761022 200.46661727 13.47460938 200.50097656 C1.94690834 200.53091638 -9.58075377 200.55024212 -21.10849261 200.55692369 C-27.21002443 200.56082815 -33.31144491 200.56997881 -39.41294098 200.59184837 C-45.16173357 200.61228584 -50.91036947 200.61847731 -56.65919495 200.61398125 C-58.76338809 200.6148032 -60.86758674 200.62072535 -62.97174835 200.63227463 C-83.64883949 200.74015222 -100.90789757 197.28422098 -116.34301758 182.61767578 C-131.1020828 167.78278046 -134.71928072 150.99222465 -134.74169922 130.82055664 C-134.38752709 95.28965904 -118.56543465 62.23775032 -93.51464844 37.3293457 C-86.71359028 30.790516 -79.36246618 25.36364556 -71.42480469 20.2746582 C-70.44769531 19.64688477 -69.47058594 19.01911133 -68.46386719 18.37231445 C-58.2141433 12.09332811 -47.25213371 8.00026004 -35.79980469 4.5246582 C-35.1563208 4.32598145 -34.51283691 4.12730469 -33.84985352 3.92260742 C-22.7257055 0.69529089 -11.52564976 -0.0224293 0 0 Z " fill="#000000" transform="translate(198.4248046875,271.725341796875)"/>
<path d="M0 0 C19.64310634 16.50723368 34.95998326 37.87100875 38 64 C39.99936484 92.27427967 35.23100056 118.17178286 16.328125 140.16015625 C-0.08462646 158.71519166 -22.00986243 172.44500696 -47.21777344 174.22753906 C-76.2855558 175.51962109 -101.15293788 169.54301128 -123.1875 149.6875 C-136.24423882 137.4909748 -145.54946777 123.03291322 -151 106 C-151.3196875 105.02933594 -151.639375 104.05867188 -151.96875 103.05859375 C-158.45049562 79.08213658 -154.47410476 52.71925718 -143 31 C-129.70999787 7.97303712 -108.81365095 -8.2252281 -83.38574219 -15.83691406 C-55.35911105 -23.33699845 -23.17810501 -17.54572308 0 0 Z " fill="#000000" transform="translate(314,58)"/>
<path d="M0 0 C11.25495089 9.30004374 19.07849245 21.33369634 24.31640625 34.9140625 C24.73019531 35.98269531 25.14398438 37.05132812 25.5703125 38.15234375 C30.92919815 54.63978637 30.45366023 74.73209873 24.31640625 90.9140625 C24.01605469 91.73132813 23.71570313 92.54859375 23.40625 93.390625 C22.48727077 95.64232303 21.44758998 97.76140851 20.31640625 99.9140625 C19.62998047 101.27724609 19.62998047 101.27724609 18.9296875 102.66796875 C8.65869893 121.74266181 -7.96590396 133.97780318 -28.21484375 141.16796875 C-50.21462292 147.69063055 -73.09092733 144.81476497 -93.109375 134 C-97.67949784 131.40870559 -101.72141659 128.35422496 -105.68359375 124.9140625 C-107.19953125 123.769375 -107.19953125 123.769375 -108.74609375 122.6015625 C-123.01930701 109.54309079 -132.73663075 90.09304049 -133.8046875 70.71728516 C-134.71774968 47.90442658 -129.66897865 27.29933992 -114.37109375 9.7890625 C-83.44340067 -23.17609685 -36.05551381 -27.83421185 0 0 Z M-56.99609375 17.7265625 C-60.04482078 21.67861606 -59.81717206 25.44313491 -59.78125 30.20703125 C-59.77912758 31.26607414 -59.77912758 31.26607414 -59.77696228 32.34651184 C-59.77137139 34.59823876 -59.75882063 36.84986571 -59.74609375 39.1015625 C-59.74107757 40.62955585 -59.73651487 42.15755077 -59.73242188 43.68554688 C-59.72140495 47.42842385 -59.70414662 51.17122623 -59.68359375 54.9140625 C-60.62154785 54.89835205 -61.55950195 54.8826416 -62.52587891 54.86645508 C-66.0259358 54.81514285 -69.52558945 54.77762378 -73.02587891 54.74926758 C-74.53701102 54.73423707 -76.04809993 54.71380686 -77.55908203 54.68774414 C-79.73871562 54.65110561 -81.9177695 54.63427912 -84.09765625 54.62109375 C-85.40686035 54.6053833 -86.71606445 54.58967285 -88.06494141 54.57348633 C-91.9667639 54.94071358 -94.37001106 55.8572159 -97.68359375 57.9140625 C-99.10401196 60.75489891 -98.99811647 62.76883528 -98.68359375 65.9140625 C-96.45152944 68.76186869 -95.13366376 69.76403916 -91.68359375 70.9140625 C-89.24251615 70.9986012 -86.83100162 71.03012036 -84.390625 71.01171875 C-83.68459641 71.0103038 -82.97856781 71.00888885 -82.25114441 71.00743103 C-79.99941749 71.00184014 -77.74779054 70.98928938 -75.49609375 70.9765625 C-73.9681004 70.97154632 -72.44010548 70.96698362 -70.91210938 70.96289062 C-67.1692324 70.9518737 -63.42643002 70.93461537 -59.68359375 70.9140625 C-59.70715942 72.32099365 -59.70715942 72.32099365 -59.73120117 73.75634766 C-59.7825134 77.25640455 -59.82003247 80.7560582 -59.84838867 84.25634766 C-59.86341918 85.76747977 -59.88384939 87.27856868 -59.90991211 88.78955078 C-59.94655064 90.96918437 -59.96337713 93.14823825 -59.9765625 95.328125 C-60.00012817 97.29193115 -60.00012817 97.29193115 -60.02416992 99.29541016 C-59.65694267 103.19723265 -58.74044035 105.60047981 -56.68359375 108.9140625 C-53.84275734 110.33448071 -51.82882097 110.22858522 -48.68359375 109.9140625 C-45.83578756 107.68199819 -44.83361709 106.36413251 -43.68359375 102.9140625 C-43.59905505 100.4729849 -43.56753589 98.06147037 -43.5859375 95.62109375 C-43.58805992 94.56205086 -43.58805992 94.56205086 -43.59022522 93.48161316 C-43.59581611 91.22988624 -43.60836687 88.97825929 -43.62109375 86.7265625 C-43.62610993 85.19856915 -43.63067263 83.67057423 -43.63476562 82.14257812 C-43.64578255 78.39970115 -43.66304088 74.65689877 -43.68359375 70.9140625 C-42.74563965 70.92977295 -41.80768555 70.9454834 -40.84130859 70.96166992 C-37.3412517 71.01298215 -33.84159805 71.05050122 -30.34130859 71.07885742 C-28.83017648 71.09388793 -27.31908757 71.11431814 -25.80810547 71.14038086 C-23.62847188 71.17701939 -21.449418 71.19384588 -19.26953125 71.20703125 C-17.96032715 71.2227417 -16.65112305 71.23845215 -15.30224609 71.25463867 C-11.4004236 70.88741142 -8.99717644 69.9709091 -5.68359375 67.9140625 C-4.26317554 65.07322609 -4.36907103 63.05928972 -4.68359375 59.9140625 C-6.91565806 57.06625631 -8.23352374 56.06408584 -11.68359375 54.9140625 C-14.12467135 54.8295238 -16.53618588 54.79800464 -18.9765625 54.81640625 C-19.68259109 54.8178212 -20.38861969 54.81923615 -21.11604309 54.82069397 C-23.36777001 54.82628486 -25.61939696 54.83883562 -27.87109375 54.8515625 C-29.3990871 54.85657868 -30.92708202 54.86114138 -32.45507812 54.86523438 C-36.1979551 54.8762513 -39.94075748 54.89350963 -43.68359375 54.9140625 C-43.6678833 53.9761084 -43.65217285 53.0381543 -43.63598633 52.07177734 C-43.5846741 48.57172045 -43.54715503 45.0720668 -43.51879883 41.57177734 C-43.50376832 40.06064523 -43.48333811 38.54955632 -43.45727539 37.03857422 C-43.42063686 34.85894063 -43.40381037 32.67988675 -43.390625 30.5 C-43.36705933 28.53619385 -43.36705933 28.53619385 -43.34301758 26.53271484 C-43.71024483 22.63089235 -44.62674715 20.22764519 -46.68359375 16.9140625 C-50.47890854 15.01640511 -53.6568134 15.10928871 -56.99609375 17.7265625 Z " fill="#000000" transform="translate(443.68359375,329.0859375)"/>
</svg>
