<?xml version="1.0" encoding="UTF-8"?>
<svg version="1.1" xmlns="http://www.w3.org/2000/svg" width="512" height="512">
<path d="M0 0 C1.24552139 -0.01283524 2.49104279 -0.02567047 3.77430725 -0.03889465 C5.13265582 -0.04706646 6.49100895 -0.05450934 7.84936523 -0.0612793 C8.8823943 -0.06739259 8.8823943 -0.06739259 9.93629265 -0.07362938 C13.58643158 -0.09446425 17.23653329 -0.10877323 20.88671875 -0.11816406 C24.6299407 -0.12918216 28.3725606 -0.16353499 32.11557102 -0.20333576 C35.0163624 -0.22967574 37.91701457 -0.23787146 40.81791496 -0.24144554 C42.19603446 -0.2462722 43.57414942 -0.2577722 44.95215034 -0.27648354 C57.76679618 -0.43957869 67.95031198 1.86053727 77.59155273 10.69262695 C78.4797168 11.5949707 79.36788086 12.49731445 80.28295898 13.42700195 C80.76031494 13.90862793 81.2376709 14.39025391 81.72949219 14.88647461 C84.46682558 17.67332528 87.0411356 20.54581136 89.53295898 23.55200195 C95.85279047 30.85790644 104.19665102 34.52529671 113.81518555 35.34482956 C118.49445055 35.57415324 123.17440831 35.57483992 127.8583374 35.557127 C130.52567167 35.54790481 133.19231953 35.55836497 135.85961914 35.57374573 C143.43496834 35.61354442 151.01025684 35.61505121 158.58569336 35.61279297 C163.24102402 35.6127416 167.89598063 35.63203765 172.5512085 35.66212654 C175.16077906 35.67285045 177.76960489 35.6608853 180.37915039 35.64830017 C192.6126471 35.67473643 203.73843908 37.12963502 212.84545898 46.17700195 C217.34911561 51.83115601 219.95305401 56.43932915 219.99263 63.72879028 C220.00336296 65.09107506 220.00336296 65.09107506 220.01431274 66.48088074 C220.01700165 67.47001968 220.01969055 68.45915863 220.02246094 69.47827148 C220.02903214 70.52593185 220.03560333 71.57359222 220.04237366 72.65299988 C220.06209155 76.12193882 220.07376694 79.59083446 220.08374023 83.05981445 C220.08781576 84.24621395 220.09189129 85.43261345 220.09609032 86.65496445 C220.11694619 92.93639705 220.13124914 99.21780785 220.140625 105.49926758 C220.1516788 111.97547749 220.18606872 118.45134283 220.2257967 124.92743111 C220.25199005 129.91700869 220.26031936 134.90650458 220.26390648 139.89614487 C220.26876659 142.28265582 220.28036404 144.66916327 220.29894447 147.05560684 C220.32338928 150.40380085 220.32236051 153.75110861 220.31542969 157.09936523 C220.33464478 158.56485558 220.33464478 158.56485558 220.35424805 160.05995178 C220.29177958 168.38248137 218.35202165 175.6796337 212.72045898 181.98950195 C205.58214161 188.5252341 197.34093146 191.32643389 187.84532166 191.32417297 C187.02085291 191.32784966 186.19638416 191.33152635 185.34693152 191.33531445 C182.57421763 191.3463593 179.8015412 191.35019653 177.02880859 191.35400391 C175.04461549 191.36026807 173.06042355 191.36691483 171.07623291 191.37391663 C164.55009785 191.39496903 158.02396252 191.40532166 151.49780273 191.4152832 C149.25095673 191.41933063 147.00411084 191.42344755 144.75726509 191.42763329 C134.19920704 191.44668932 123.64115599 191.46091822 113.08308405 191.46924525 C100.89971284 191.47901283 88.71652354 191.5053182 76.53321642 191.54574615 C67.114817 191.5759253 57.69646965 191.59071594 48.27802283 191.59402627 C42.65387853 191.59637514 37.02992848 191.60531433 31.40583611 191.63048744 C26.11084577 191.65380379 20.81617709 191.65798694 15.52114868 191.64772606 C13.5822041 191.64723142 11.64324349 191.65353055 9.70434761 191.6672821 C-3.66934892 191.75679374 -15.04011233 191.04418904 -25.15454102 181.17700195 C-29.34280422 175.6864181 -31.2743261 171.17048938 -31.30171204 164.2134552 C-31.30886734 162.96718353 -31.31602264 161.72091187 -31.32339478 160.43687439 C-31.32623502 159.05313135 -31.32894675 157.66938805 -31.33154297 156.28564453 C-31.33780865 154.83021889 -31.34445554 153.37479485 -31.35145569 151.91937256 C-31.37248884 147.13677075 -31.38285845 142.35416866 -31.39282227 137.5715332 C-31.39687032 135.92394176 -31.40098726 134.27635048 -31.40517235 132.62875938 C-31.42422362 124.88668463 -31.4384539 117.14461941 -31.44678432 109.40252572 C-31.45655216 100.47239384 -31.48285997 91.54251014 -31.52328521 82.61246568 C-31.55347357 75.70617808 -31.56825583 68.79996151 -31.57156533 61.89360923 C-31.57391303 57.77074051 -31.58283657 53.64813693 -31.6080265 49.52533913 C-31.63135958 45.64369664 -31.63551968 41.76249286 -31.62526512 37.88079834 C-31.62477089 36.46025315 -31.63105808 35.03968598 -31.64482117 33.61920738 C-31.72855873 24.46030824 -31.08597347 18.52648841 -25.58422852 11.0402832 C-18.37422403 3.84839431 -10.14843079 0.09124482 0 0 Z " fill="#000000" transform="translate(69.154541015625,303.822998046875)"/>
<path d="M0 0 C5.46854157 4.37483326 10.11592077 9.28708062 14.80078125 14.4765625 C18.54254783 18.61807508 22.36531328 22.68282449 26.1875 26.75 C27.19586914 27.82386963 27.19586914 27.82386963 28.22460938 28.91943359 C29.81582272 30.61350575 31.40759949 32.30704384 33 34 C31.14623756 38.07329936 28.43300459 40.57514348 25.125 43.5 C20.51724309 47.65438711 16.04005054 51.89131713 11.6875 56.3125 C8.57157851 59.46947976 5.44560045 62.5639879 2.0625 65.4375 C-1.65957718 68.60010003 -5.06865804 72.02970978 -8.5 75.5 C-11.89005854 78.92845105 -15.25194008 82.32260742 -18.9375 85.4375 C-22.84269956 88.74572637 -26.40281168 92.36513493 -30 96 C-34.16646694 100.21010629 -38.35285402 104.2724121 -42.87890625 108.09765625 C-45.87139221 110.78152487 -48.67433259 113.64234089 -51.5 116.5 C-54.89006381 119.92844551 -58.25193957 123.32260699 -61.9375 126.4375 C-65.84269956 129.74572637 -69.40281168 133.36513493 -73 137 C-77.16649209 141.2101317 -81.34752351 145.27865712 -85.8828125 149.09375 C-88.26731943 151.24068613 -90.48742607 153.51140359 -92.72558594 155.80908203 C-100.81736754 164.09704202 -108.4355437 171.77261322 -120.62890625 172.0625 C-129.06535529 171.68702522 -135.54407629 168.91043537 -141.375 162.75 C-146.02833885 156.7652892 -147.62257591 149.98162647 -147.34375 142.4765625 C-145.75648244 131.04102123 -136.95017321 123.65586041 -128.74609375 116.42578125 C-125.75196821 113.78089937 -122.81155646 111.08332189 -119.875 108.375 C-116.63827916 105.39733874 -113.38860883 102.44045943 -110.0625 99.5625 C-105.87890143 95.93787911 -101.8356539 92.16614933 -97.77758789 88.40258789 C-94.88635872 85.72598962 -91.98110596 83.07688821 -89 80.5 C-84.88795707 76.94316962 -80.9123038 73.24416316 -76.92456055 69.54956055 C-71.99335742 64.98389615 -67.00693471 60.48247674 -62 56 C-56.64060582 51.19472735 -51.30128222 46.36935088 -46 41.5 C-39.90004921 35.89705348 -33.74438953 30.3578719 -27.578125 24.828125 C-22.98551863 20.70355494 -18.41822095 16.55376476 -13.875 12.375 C-9.31138463 8.17819488 -4.69673392 4.04747952 0 0 Z " fill="#000000" transform="translate(253,118)"/>
<path d="M0 0 C0.10156178 7.15319672 0.17153366 14.30620695 0.21972656 21.45996094 C0.23982071 23.89264881 0.26710088 26.32528851 0.30175781 28.7578125 C0.3503706 32.25793355 0.37299139 35.75741502 0.390625 39.2578125 C0.41127014 40.34240753 0.43191528 41.42700256 0.45318604 42.54446411 C0.45501253 48.71453745 0.09774588 52.28807776 -4 57 C-4.44859375 57.54527344 -4.8971875 58.09054687 -5.359375 58.65234375 C-25.58029469 77.33965436 -65.01178871 80.08144217 -90.9140625 80.203125 C-91.91897232 80.21013931 -92.92388214 80.21715363 -93.95924377 80.22438049 C-97.18120867 80.24177568 -100.40298988 80.24823179 -103.625 80.25 C-104.72470123 80.25067474 -105.82440247 80.25134949 -106.95742798 80.25204468 C-122.81688638 80.23656074 -138.37763033 80.0211342 -154 77 C-155.54034912 76.70270996 -155.54034912 76.70270996 -157.11181641 76.39941406 C-162.08230684 75.40908435 -167.03785487 74.35602944 -171.96875 73.18359375 C-173.10473633 72.91373657 -173.10473633 72.91373657 -174.26367188 72.63842773 C-176 72 -176 72 -177 70 C-176.41020504 68.42695779 -175.7691026 66.8731426 -175.109375 65.328125 C-171.68666297 55.47236386 -172.31946369 45.06778171 -172.25 34.75 C-172.22179666 32.63669475 -172.19186326 30.52341184 -172.16015625 28.41015625 C-172.08681187 23.27347802 -172.03692066 18.13706387 -172 13 C-163.57895783 13.69603849 -155.23575673 14.72332096 -146.86914062 15.89453125 C-133.1300828 17.75395261 -119.46708428 18.20611561 -105.625 18.1875 C-104.79095642 18.18689575 -103.95691284 18.1862915 -103.09759521 18.18566895 C-68.08483305 18.11708699 -32.2029795 0 0 0 Z " fill="#000000" transform="translate(474,415)"/>
<path d="M0 0 C3.39518289 1.13172763 6.64358783 2.2151409 9.93359375 3.55078125 C39.55425264 15.24899956 71.80293377 18.22567111 103.4375 18.25 C104.2372525 18.25067474 105.037005 18.25134949 105.86099243 18.25204468 C139.64668518 18.20731424 176.39791493 15.48878539 207 0 C207.66 0 208.32 0 209 0 C209.20311303 7.15282583 209.34304981 14.3049067 209.43945312 21.45996094 C209.47964492 23.8928608 209.53420973 26.3255679 209.60351562 28.7578125 C209.70075128 32.25829603 209.74597077 35.7562234 209.78125 39.2578125 C209.82254028 40.34240753 209.86383057 41.42700256 209.90637207 42.54446411 C209.91075213 49.94261234 209.91075213 49.94261234 207.27742004 52.99992371 C205.24652672 54.55218188 203.26049549 55.81238845 201 57 C199.95199219 57.56847656 198.90398437 58.13695312 197.82421875 58.72265625 C173.42312481 69.14553946 145.90960707 73.0865853 119.5 73.203125 C118.4337439 73.21009399 117.36748779 73.21706299 116.2689209 73.22424316 C112.8459067 73.24154557 109.42305611 73.24796289 106 73.25 C104.83315674 73.25100708 103.66631348 73.25201416 102.46411133 73.25305176 C85.461234 73.24310719 68.79746949 72.8884696 52 70 C50.54835449 69.75926758 50.54835449 69.75926758 49.06738281 69.51367188 C30.25364114 66.32065748 30.25364114 66.32065748 23.4375 59.6875 C16.61739741 53.59074162 8.70487383 50.48710681 0 48 C0 32.16 0 16.32 0 0 Z M163 29 C160.2975575 33.05366375 160.47263183 36.24531551 161 41 C162.37574229 44.51578585 163.59464913 45.71719707 166.6875 47.875 C170.80780885 49.27435017 173.86982746 49.41921567 178 48 C181.14525551 45.39010713 183.73661995 43.19771223 184.23828125 39.01171875 C184.36800555 34.94929982 184.37432746 32.62833539 182.25 29.0625 C178.91899583 26.00907951 177.15691184 25.12854576 172.625 24.625 C168.32919568 25.06939355 166.32216411 26.29591294 163 29 Z M127 36 C124.61378448 39.46386124 123.98850781 41.34494544 124.0625 45.5625 C125.25414409 49.93186165 126.94341306 52.74966412 130.86328125 55.1328125 C134.67276484 56.67889176 138.13574959 56.24136542 142 55 C145.34227051 52.64475438 147.55444005 49.9641768 148.46875 45.93359375 C148.66999771 41.51452934 147.7991174 38.37824514 145 35 C142.09799637 32.66227486 140.27699106 32.03525341 136.5625 31.5625 C132.2573409 32.09120375 130.27287321 33.17342768 127 36 Z " fill="#000000" transform="translate(265,280)"/>
<path d="M0 0 C0.17772678 7.15294175 0.30017337 14.3053129 0.38452148 21.45996094 C0.41968834 23.89279456 0.46743134 26.32548062 0.52807617 28.7578125 C0.61315462 32.25818286 0.65272771 35.75659565 0.68359375 39.2578125 C0.71972275 40.34240753 0.75585175 41.42700256 0.79307556 42.54446411 C0.79690115 49.92916229 0.79690115 49.92916229 -1.48258972 52.99223328 C-5.25247986 56.30732776 -9.57096531 58.62056784 -14.1875 60.5625 C-14.87038086 60.85350586 -15.55326172 61.14451172 -16.25683594 61.44433594 C-61.24837348 79.7921635 -123.28061026 78.80308786 -170 68 C-170.66 67.67 -171.32 67.34 -172 67 C-172.33 49.18 -172.66 31.36 -173 13 C-162.90726052 14.1214155 -162.90726052 14.1214155 -158.9140625 14.71875 C-158.04523438 14.84636719 -157.17640625 14.97398437 -156.28125 15.10546875 C-154.51806017 15.3673543 -152.75503712 15.63036536 -150.9921875 15.89453125 C-96.22683479 23.91490095 -50.08704138 0 0 0 Z " fill="#000000" transform="translate(474,347)"/>
<path d="M0 0 C4.74708076 -0.73510099 9.09354888 -1.23829752 13.54296875 0.87109375 C18.13110182 5.71618932 20.86803834 11.71594888 23.74609375 17.66796875 C26.06558973 22.36568213 27.76991891 24.67807085 32.54296875 26.87109375 C36.76902653 27.9276082 39.95999629 27.14608076 43.85546875 25.30859375 C48.32017872 21.25920563 49.4292396 18.17853178 49.71875 12.3046875 C49.72929615 8.82094256 49.67332846 5.35218079 49.54296875 1.87109375 C71.23578355 2.25909532 103.27319299 6.26384329 119.73046875 21.95703125 C123.7410683 26.4366122 126.12498877 29.4977238 126 35.78125 C125.26686236 39.13363151 123.45434396 40.52889414 120.75 42.5078125 C74.7303084 70.93413527 -1.75594033 64.88489949 -52.07641602 53.21166992 C-62.52258412 50.62021462 -75.55633712 46.52127806 -83.45703125 38.87109375 C-84.68168568 34.64115238 -84.360293 30.5131255 -82.234375 26.6484375 C-67.30525166 8.33114432 -36.44633383 4.55315104 -14.45703125 1.87109375 C-11.93719712 1.61796084 -9.41647122 1.37984313 -6.89453125 1.14868164 C-4.5582074 0.88261591 -2.30430176 0.46183588 0 0 Z " fill="#000000" transform="translate(348.45703125,225.12890625)"/>
<path d="M0 0 C6.7348355 5.59797224 12.52029608 12.52582442 18.43359375 18.96777344 C20.09172384 20.77323186 21.7554062 22.57333367 23.421875 24.37109375 C25.40882689 26.51482708 27.39042331 28.66327648 29.3671875 30.81640625 C31.26451879 32.88218608 33.17705541 34.9321836 35.1015625 36.97265625 C36.00132812 37.936875 36.90109375 38.90109375 37.828125 39.89453125 C38.62476563 40.74015625 39.42140625 41.58578125 40.2421875 42.45703125 C43.21268408 46.14944134 44.62214448 49.4505396 44.265625 54.20703125 C42.62696388 64.72636351 29.63058859 73.30382739 22.13330078 80.125 C20.43438493 81.68251861 18.7676475 83.26688211 17.10546875 84.86328125 C12.77607626 88.80022521 9.47750799 91.44534828 3.515625 91.89453125 C-2.67429176 91.31587048 -5.71148144 88.30204237 -9.796875 83.89453125 C-11.48356781 82.2478707 -13.17110637 80.60207613 -14.859375 78.95703125 C-18.44291779 75.34061192 -21.84337611 71.62473253 -25.15234375 67.7578125 C-26.80086252 65.89001332 -28.51991081 64.13997501 -30.296875 62.39453125 C-34.01097782 58.73859111 -37.40749387 54.85010191 -40.796875 50.89453125 C-41.37050781 50.23710938 -41.94414062 49.5796875 -42.53515625 48.90234375 C-43.07527344 48.28101563 -43.61539062 47.6596875 -44.171875 47.01953125 C-44.65398437 46.46523437 -45.13609375 45.9109375 -45.6328125 45.33984375 C-47.82126159 42.62264186 -48.01082679 40.56778495 -48.109375 37.14453125 C-48.14675781 36.3040625 -48.18414062 35.46359375 -48.22265625 34.59765625 C-47.169675 27.91267434 -41.63783355 23.58729051 -36.859375 19.26953125 C-35.51807195 18.04314067 -34.1769292 16.81657477 -32.8359375 15.58984375 C-32.16208008 14.97657227 -31.48822266 14.36330078 -30.79394531 13.73144531 C-28.88269954 11.97347304 -27.00330146 10.18789258 -25.1328125 8.38671875 C-24.55909912 7.83967285 -23.98538574 7.29262695 -23.39428711 6.72900391 C-22.31812942 5.70175529 -21.24819462 4.66793192 -20.18579102 3.62646484 C-14.51973666 -1.72413666 -7.0876314 -4.3604341 0 0 Z " fill="#000000" transform="translate(304.796875,60.10546875)"/>
<path d="M0 0 C5.19451364 0.14130759 10.03249361 1.3724975 15.03125 2.71484375 C16.52325928 3.11147217 16.52325928 3.11147217 18.04541016 3.51611328 C38.63590815 9.18680155 58.63329936 17.33422418 77.09375 28.08984375 C77.7441626 28.46302734 78.3945752 28.83621094 79.06469727 29.22070312 C80.84765625 30.296875 80.84765625 30.296875 83.53125 32.27734375 C83.53125 35.27734375 83.53125 35.27734375 82.28125 36.85546875 C81.415 37.68304688 81.415 37.68304688 80.53125 38.52734375 C79.5721875 39.44773437 79.5721875 39.44773437 78.59375 40.38671875 C75.9405001 42.81886449 73.22931584 45.17727561 70.5 47.5234375 C68.58908166 49.22582308 66.80980788 51.00065322 65.03125 52.83984375 C61.51246046 56.4317721 57.62604846 59.37375939 53.53125 62.27734375 C52.84160156 61.45492187 52.15195313 60.6325 51.44140625 59.78515625 C48.96465237 56.83799221 46.47364905 53.903238 43.97558594 50.97412109 C42.74115964 49.52394145 41.51432309 48.06730702 40.2890625 46.609375 C31.7642688 36.74956644 21.62598883 28.74001572 11.21875 20.96484375 C10.54513428 20.46146484 9.87151855 19.95808594 9.17749023 19.43945312 C6.31642045 17.31245271 3.44531183 15.21748798 0.51953125 13.1796875 C-5.3164557 9.0111254 -5.3164557 9.0111254 -6.15625 4.96484375 C-5.10448084 0.8533825 -4.2427679 0.33923032 0 0 Z " fill="#000000" transform="translate(196.46875,16.72265625)"/>
<path d="M0 0 C2.36085574 2.14775789 3.70476989 4.09824953 5.015625 7 C5.3760791 7.7940625 5.7365332 8.588125 6.10791016 9.40625 C6.4847998 10.2621875 6.86168945 11.118125 7.25 12 C7.64622559 12.8971875 8.04245117 13.794375 8.45068359 14.71875 C18.23751935 37.15167413 29.84046125 65.15377319 28 90 C26 92 26 92 22.80078125 92.7578125 C18.35220744 91.87084095 18.04374499 91.28694181 15.60546875 87.6796875 C14.44246441 85.75893257 13.30442449 83.82291126 12.1875 81.875 C10.95714815 79.83949861 9.7240721 77.80564137 8.48828125 75.7734375 C7.59423584 74.28215332 7.59423584 74.28215332 6.68212891 72.76074219 C-2.84463489 57.12523492 -15.29393013 41.0295524 -30 30 C-28.43519175 26.07441167 -25.94258313 23.90448003 -22.8125 21.125 C-21.738814 20.16231569 -20.6659384 19.19872699 -19.59375 18.234375 C-19.01882813 17.71939453 -18.44390625 17.20441406 -17.8515625 16.67382812 C-14.46764121 13.61473473 -11.14289106 10.49211479 -7.8125 7.375 C-7.15290283 6.75898926 -6.49330566 6.14297852 -5.8137207 5.50830078 C-2.87549476 2.78677547 -2.87549476 2.78677547 0 0 Z " fill="#000000" transform="translate(355,130)"/>
<path d="M0 0 C6.65967271 4.71018109 14.4782089 11.58270898 15.92578125 19.90625 C16.57316195 25.73267633 15.40839202 30.23658393 11.92578125 34.90625 C9.66263448 36.99406897 7.31548974 38.96534337 4.92578125 40.90625 C-9.44947347 26.71043674 -9.44947347 26.71043674 -14.41015625 20.859375 C-16.56365193 18.33179792 -18.78737983 15.87161636 -21.01171875 13.40625 C-21.78386719 12.5503125 -22.55601562 11.694375 -23.3515625 10.8125 C-23.92003906 10.1834375 -24.48851562 9.554375 -25.07421875 8.90625 C-22.77460799 3.80805633 -19.19392818 0.94255239 -14.26171875 -1.46875 C-9.18173755 -2.46482475 -4.66667765 -2.46077164 0 0 Z " fill="#000000" transform="translate(346.07421875,50.09375)"/>
</svg>
